<mxfile host="Electron" agent="Mozilla/5.0 (Windows NT 10.0; Win64; x64) AppleWebKit/537.36 (KHTML, like Gecko) draw.io/25.0.2 Chrome/128.0.6613.186 Electron/32.2.5 Safari/537.36" version="25.0.2">
  <diagram name="Strona-1" id="x4iDb7SHH9YA5D9xjIFl">
    <mxGraphModel dx="498" dy="336" grid="1" gridSize="10" guides="1" tooltips="1" connect="1" arrows="1" fold="1" page="1" pageScale="1" pageWidth="827" pageHeight="1169" math="0" shadow="0">
      <root>
        <mxCell id="0" />
        <mxCell id="1" parent="0" />
        <mxCell id="7CTyLc3QHbL7lH8EvLYY-2" value="" style="rounded=0;whiteSpace=wrap;html=1;dashed=1;dashPattern=12 12;" parent="1" vertex="1">
          <mxGeometry x="199" y="140" width="121" height="99" as="geometry" />
        </mxCell>
        <mxCell id="GtQeyq3_UFh-qR09QG_a-5" value="&lt;b&gt;Inform&lt;/b&gt;&lt;div&gt;&lt;b&gt;(&lt;/b&gt;informed stakeholders&lt;b&gt;)&lt;/b&gt;&lt;/div&gt;" style="rounded=0;whiteSpace=wrap;html=1;fillColor=none;" parent="1" vertex="1">
          <mxGeometry x="230" y="139" width="90" height="100" as="geometry" />
        </mxCell>
        <mxCell id="GtQeyq3_UFh-qR09QG_a-3" value="&lt;b&gt;Manage closely&lt;br&gt;&lt;/b&gt;(key stakeholders)&lt;div&gt;&lt;br/&gt;&lt;/div&gt;" style="rounded=0;whiteSpace=wrap;html=1;" parent="1" vertex="1">
          <mxGeometry x="199" y="39" width="111" height="100" as="geometry" />
        </mxCell>
        <mxCell id="GtQeyq3_UFh-qR09QG_a-2" value="&lt;b&gt;Keep satisfied&lt;br&gt;&lt;/b&gt;&amp;nbsp;(potentially influential stakeholders)" style="rounded=0;whiteSpace=wrap;html=1;" parent="1" vertex="1">
          <mxGeometry x="79" y="39" width="111" height="100" as="geometry" />
        </mxCell>
        <mxCell id="GtQeyq3_UFh-qR09QG_a-6" value="" style="endArrow=classic;startArrow=none;html=1;rounded=0;startFill=0;" parent="1" edge="1">
          <mxGeometry width="50" height="50" relative="1" as="geometry">
            <mxPoint x="89" y="248" as="sourcePoint" />
            <mxPoint x="309" y="248" as="targetPoint" />
          </mxGeometry>
        </mxCell>
        <mxCell id="GtQeyq3_UFh-qR09QG_a-7" value="&lt;b&gt;Interest&lt;/b&gt;" style="edgeLabel;html=1;align=center;verticalAlign=top;resizable=0;points=[];spacing=2;" parent="GtQeyq3_UFh-qR09QG_a-6" vertex="1" connectable="0">
          <mxGeometry relative="1" as="geometry">
            <mxPoint as="offset" />
          </mxGeometry>
        </mxCell>
        <mxCell id="GtQeyq3_UFh-qR09QG_a-10" value="" style="endArrow=classic;html=1;rounded=0;" parent="1" edge="1">
          <mxGeometry width="50" height="50" relative="1" as="geometry">
            <mxPoint x="60" y="230" as="sourcePoint" />
            <mxPoint x="59" y="49" as="targetPoint" />
          </mxGeometry>
        </mxCell>
        <mxCell id="GtQeyq3_UFh-qR09QG_a-21" value="&lt;b&gt;Power&lt;/b&gt;" style="edgeLabel;html=1;align=center;verticalAlign=bottom;resizable=0;points=[];horizontal=0;" parent="GtQeyq3_UFh-qR09QG_a-10" vertex="1" connectable="0">
          <mxGeometry relative="1" as="geometry">
            <mxPoint as="offset" />
          </mxGeometry>
        </mxCell>
        <mxCell id="GtQeyq3_UFh-qR09QG_a-12" value="&lt;i&gt;&lt;font style=&quot;font-size: 10px;&quot;&gt;Low&lt;/font&gt;&lt;/i&gt;" style="text;html=1;strokeColor=none;fillColor=none;align=center;verticalAlign=middle;whiteSpace=wrap;rounded=0;" parent="1" vertex="1">
          <mxGeometry x="49" y="248" width="60" height="30" as="geometry" />
        </mxCell>
        <mxCell id="GtQeyq3_UFh-qR09QG_a-13" value="&lt;i&gt;&lt;font style=&quot;font-size: 10px;&quot;&gt;High&lt;/font&gt;&lt;/i&gt;" style="text;html=1;strokeColor=none;fillColor=none;align=center;verticalAlign=middle;whiteSpace=wrap;rounded=0;" parent="1" vertex="1">
          <mxGeometry x="269" y="248" width="60" height="30" as="geometry" />
        </mxCell>
        <mxCell id="GtQeyq3_UFh-qR09QG_a-14" value="&lt;i&gt;&lt;font style=&quot;font-size: 10px;&quot;&gt;Low&lt;/font&gt;&lt;/i&gt;" style="text;html=1;strokeColor=none;fillColor=none;align=center;verticalAlign=middle;whiteSpace=wrap;rounded=0;" parent="1" vertex="1">
          <mxGeometry y="209" width="60" height="30" as="geometry" />
        </mxCell>
        <mxCell id="GtQeyq3_UFh-qR09QG_a-19" value="&lt;i&gt;&lt;font style=&quot;font-size: 10px;&quot;&gt;High&lt;/font&gt;&lt;/i&gt;" style="text;html=1;strokeColor=none;fillColor=none;align=center;verticalAlign=middle;whiteSpace=wrap;rounded=0;" parent="1" vertex="1">
          <mxGeometry y="39" width="60" height="30" as="geometry" />
        </mxCell>
        <mxCell id="7CTyLc3QHbL7lH8EvLYY-1" value="" style="rounded=0;whiteSpace=wrap;html=1;dashed=1;dashPattern=12 12;" parent="1" vertex="1">
          <mxGeometry x="79" y="140" width="121" height="99" as="geometry" />
        </mxCell>
        <mxCell id="GtQeyq3_UFh-qR09QG_a-4" value="&lt;b&gt;Monitor&lt;/b&gt;&lt;br&gt;(stakeholders &lt;br&gt;requiring minimum effort)" style="rounded=0;whiteSpace=wrap;html=1;fillColor=none;" parent="1" vertex="1">
          <mxGeometry x="79" y="139" width="151" height="100" as="geometry" />
        </mxCell>
      </root>
    </mxGraphModel>
  </diagram>
</mxfile>
